<svg id="e1qZWaEN4oP1" xmlns="http://www.w3.org/2000/svg" xmlns:xlink="http://www.w3.org/1999/xlink" viewBox="0 0 300 300" shape-rendering="geometricPrecision" text-rendering="geometricPrecision"><rect width="50.454921" height="177.00579" rx="0" ry="0" transform="matrix(.784196 0 0 1.128255 22.739786 55.802028)" fill="#e60000" stroke-width="0"/><rect width="91.811415" height="52.109181" rx="0" ry="0" transform="matrix(1 0 0 0.753968 58.188585 55.802028)" fill="#e60000" stroke-width="0"/><rect width="91.811415" height="52.109181" rx="0" ry="0" transform="matrix(.866312 0 0 0.737574 53.222273 217.075319)" fill="#e60000" stroke-width="0"/><rect width="91.811415" height="52.109181" rx="0" ry="0" transform="matrix(.546877 0 0 0.737574 132.759604 217.075319)" fill="#e60000" stroke-width="0"/><rect width="91.811415" height="52.109181" rx="0" ry="0" transform="matrix(.401452 0 0 0.737574 146.266814 182.782502)" fill="#e60000" stroke-width="0"/><rect width="125.723758" height="45.492142" rx="0" ry="0" transform="matrix(.801202 0 0 0.720619 82.394541 150)" fill="#e60000" stroke-width="0"/><rect width="54.446269" height="187.044682" rx="0" ry="0" transform="matrix(.614457 0 0 1.072604 190.96494 55.343425)" fill="#e60000" stroke-width="0"/><rect width="111.487815" height="30.274209" rx="0" ry="0" transform="matrix(.707107 0.707107-.707107 0.707107 221.166209 151.879246)" fill="#e60000" stroke-width="0"/><rect width="111.487815" height="30.274209" rx="0" ry="0" transform="matrix(.707107-.707107 0.707107 0.707107 199.759111 139.68093)" fill="#e60000" stroke-width="0"/></svg>
